<svg xmlns="http://www.w3.org/2000/svg" width="498" height="40" viewBox="0 0 498 40" fill="none"><path d="M495.958 19.857H289.853C289.741 20.0246 289.628 20.1643 289.515 20.3319C287.516 22.9021 284.812 24.3828 281.995 24.4107C281.319 24.4107 280.615 24.3548 279.939 24.1872C279.601 24.1034 279.263 23.9916 278.925 23.8799C279.01 24.0475 279.094 24.2151 279.151 24.3828C279.658 25.6399 279.601 27.0368 279.066 28.2939C278.531 29.5232 277.517 30.473 276.278 30.9479C275.574 31.3111 270.617 33.4064 264.533 29.16C262.646 27.8469 260.449 26.8412 258.787 26.506L258.562 26.4501C256.534 25.9752 254.422 26.5618 252.873 28.0146C251.436 29.3555 250.845 31.1994 251.183 33.0712C251.211 33.2108 251.239 33.3785 251.295 33.5181C251.633 34.8032 252.507 35.8648 253.774 36.5074C255.605 37.4293 257.379 37.3734 258.646 36.3677C259.773 35.4737 260.252 33.9931 259.886 32.5962C259.717 31.9257 259.238 31.3391 258.562 31.0038C257.548 30.473 256.59 30.501 255.914 31.0318C255.323 31.4787 255.07 32.261 255.267 32.9594C255.436 33.6299 256.112 34.021 256.788 33.8534C257.492 33.6858 258.196 34.0769 258.365 34.7753C258.534 35.4737 258.111 36.1722 257.435 36.3398C255.379 36.8706 253.267 35.6414 252.732 33.602C252.281 31.8978 252.873 30.0819 254.281 28.9924C255.774 27.819 257.83 27.7073 259.773 28.713C261.069 29.3835 262.026 30.5568 262.392 31.9257C263.012 34.3004 262.195 36.8426 260.252 38.3792C258.168 40.0275 255.295 40.1951 252.563 38.7982C250.704 37.8484 249.352 36.228 248.789 34.3563C248.225 36.256 246.874 37.8763 245.015 38.7982C242.283 40.1951 239.382 40.0275 237.326 38.3792C235.41 36.8426 234.565 34.3004 235.185 31.9257C235.551 30.5568 236.509 29.3835 237.804 28.713C239.748 27.7073 241.776 27.819 243.297 28.9924C244.677 30.0819 245.296 31.8978 244.846 33.602C244.311 35.6414 242.198 36.8706 240.142 36.3398C239.438 36.1722 239.016 35.4458 239.213 34.7753C239.382 34.0769 240.114 33.6578 240.79 33.8534C241.466 34.021 242.142 33.6299 242.311 32.9594C242.508 32.233 242.254 31.4787 241.663 31.0318C240.987 30.501 240.029 30.501 239.016 31.0038C238.368 31.3391 237.889 31.9257 237.692 32.5962C237.326 33.9931 237.804 35.4737 238.931 36.3677C240.198 37.3734 241.973 37.4293 243.804 36.5074C245.071 35.8648 245.972 34.8032 246.282 33.5181C246.31 33.3785 246.367 33.2108 246.395 33.0712C246.733 31.1994 246.141 29.3555 244.705 28.0146C243.184 26.5618 241.072 26.0031 239.016 26.4501L238.79 26.506C237.128 26.8412 234.96 27.8469 233.045 29.16C226.961 33.4064 222.004 31.3111 221.3 30.9479C220.06 30.4451 219.075 29.5232 218.511 28.2939C217.948 27.0368 217.92 25.6679 218.427 24.3828C218.54 24.0754 218.709 23.7961 218.878 23.5446C218.765 23.5726 218.652 23.6005 218.54 23.6285C217.976 23.7402 217.413 23.824 216.85 23.824C213.921 23.8799 211.076 22.3434 209.02 19.6055C208.963 19.5217 208.907 19.4659 208.879 19.382H1.98577C1.42247 19.382 0.971832 18.935 0.971832 18.3763C0.971832 17.8176 1.42247 17.3706 1.98577 17.3706H207.809C207.33 16.2252 207.076 14.9959 207.048 13.7667C207.048 13.0962 207.105 12.4257 207.245 11.7553C207.302 11.4759 207.386 11.1965 207.443 10.9171C208.457 7.31327 211.189 4.54752 214.85 3.4021C215.977 3.03892 217.131 2.8713 218.286 2.84336C221.046 2.81542 223.778 3.70941 225.947 5.49737L226.2 5.69293C228.425 7.39709 230.763 10.2746 232.566 13.4873C234.763 17.4544 237.438 19.382 239.579 20.3598C241.719 21.3097 243.325 21.2818 243.437 21.2818H243.55H243.578H243.606C243.747 21.2818 243.888 21.3097 244.029 21.3097C244.93 21.3097 245.803 20.9744 246.507 20.3878C247.324 19.7173 247.831 18.7674 247.916 17.7058C247.916 17.5941 247.916 17.5103 247.916 17.3985C247.887 15.9458 246.761 14.7166 245.296 14.5769H245.127C244.677 14.5769 244.17 14.7724 243.804 15.1356C243.297 15.6106 243.071 16.1134 243.071 16.5883C243.071 16.728 243.099 16.8677 243.156 17.0074C243.325 17.5103 243.775 17.8734 244.311 17.9014C245.015 17.9573 245.578 18.5439 245.578 19.2703V19.41C245.522 20.1363 244.902 20.6671 244.198 20.6671H244.057C242.423 20.5275 241.043 19.4379 240.508 17.9293C240.367 17.5103 240.283 17.0633 240.283 16.6442C240.255 15.3871 240.846 14.1299 241.888 13.1521C242.761 12.3419 243.916 11.867 245.099 11.8391C245.268 11.8391 245.409 11.8391 245.578 11.867C246.057 11.9229 246.507 12.0346 246.93 12.1743C246.367 11.6435 245.944 10.9451 245.803 10.1349C245.747 9.77173 245.691 9.38061 245.691 9.01743C245.662 7.20153 246.282 5.35769 246.93 3.90497C247.578 2.48018 248.225 1.47445 248.282 1.3627C248.563 0.943645 249.014 0.776028 249.437 0.776028C249.887 0.776028 250.366 0.971584 250.648 1.39064C250.704 1.50239 251.295 2.45224 251.887 3.82116C252.478 5.19007 253.07 6.9501 253.098 8.71012C253.098 9.21299 253.07 9.71585 252.957 10.1908C252.788 11.001 252.366 11.6994 251.802 12.2302C252.225 12.0905 252.676 11.9787 253.154 11.9508C253.239 11.9508 253.323 11.9508 253.408 11.9508C254.647 11.9229 255.886 12.4257 256.816 13.3197C257.802 14.2696 258.337 15.4429 258.365 16.6442C258.365 17.1471 258.28 17.65 258.111 18.1249C257.548 19.6335 256.14 20.6951 254.534 20.8068H254.478C253.746 20.8348 253.126 20.276 253.07 19.5497V19.5217V19.4379C253.07 18.7116 253.633 18.0969 254.365 18.0411C254.901 18.0131 255.351 17.65 255.548 17.175C255.605 17.0074 255.633 16.8677 255.633 16.7001C255.633 16.281 255.408 15.7782 254.929 15.3032C254.534 14.9121 253.999 14.7166 253.52 14.7166H253.436C251.915 14.8283 250.76 16.1414 250.76 17.65V17.8176C250.845 18.8792 251.324 19.829 252.112 20.5275C252.844 21.17 253.774 21.5053 254.76 21.5053H254.985H255.013H255.126C255.126 21.5053 255.182 21.5053 255.295 21.5053C255.83 21.5053 257.492 21.3935 259.548 20.3878C261.604 19.382 264.054 17.5103 266.138 13.9064C267.997 10.7495 270.391 7.89995 272.616 6.25167L272.898 6.02818C274.954 4.40783 277.489 3.54179 280.052 3.51385C281.404 3.48591 282.756 3.7094 284.051 4.12846C287.713 5.35769 290.36 8.15138 291.318 11.7832C291.402 12.0626 291.459 12.3419 291.515 12.6213C291.6 13.1521 291.656 13.655 291.684 14.1858C291.712 15.4709 291.459 16.728 290.98 17.9573H496.014C496.578 17.9573 497.028 18.4042 497.028 18.963C496.972 19.41 496.521 19.857 495.958 19.857ZM220.99 27.2323C221.074 27.4279 221.187 27.6234 221.328 27.7631C221.243 27.4838 221.243 27.1765 221.356 26.8691C221.61 26.1987 222.37 25.8634 223.046 26.1148C223.271 26.1987 223.553 26.1428 223.75 25.9752C223.975 25.7517 224.032 25.3605 223.835 24.9136C223.722 24.6063 223.497 24.3828 223.215 24.271C222.314 23.9358 221.3 24.3828 220.962 25.2767C220.68 25.9193 220.708 26.6177 220.99 27.2323ZM216.85 21.0303C217.216 21.0303 217.61 20.9744 217.976 20.8906C220.117 20.4157 221.779 18.7116 222.229 16.5883C222.286 16.3369 222.314 16.0575 222.314 15.8061C222.314 14.9959 222.032 14.1578 221.497 13.4594C220.567 12.2022 219.441 11.6156 218.314 11.6156C218.117 11.6156 217.92 11.6435 217.695 11.6994C216.512 11.9508 215.582 12.9007 215.329 14.074C215.301 14.2416 215.272 14.3813 215.272 14.5489C215.301 15.5547 216.005 16.4487 217.019 16.6442C217.666 16.7839 218.117 17.3426 218.145 17.9852C218.145 18.069 218.145 18.1808 218.117 18.2925C217.976 18.9351 217.413 19.382 216.765 19.41C216.681 19.41 216.624 19.41 216.54 19.382C216.484 19.382 216.427 19.41 216.371 19.41H212.625C213.921 20.4995 215.385 21.0583 216.85 21.0303ZM238.34 22.8462C235.748 21.6729 232.622 19.3262 230.144 14.8283C228.538 11.9787 226.341 9.2968 224.482 7.84408L224.229 7.62058C222.539 6.25167 220.483 5.55325 218.371 5.58118C217.497 5.58118 216.596 5.72087 215.723 6.00024C212.935 6.86629 210.935 8.90568 210.146 11.6156C210.09 11.8391 210.034 12.0346 209.977 12.2581C209.865 12.733 209.837 13.2359 209.837 13.7108C209.865 14.9401 210.231 16.1693 210.935 17.3147H213.47C212.907 16.5045 212.569 15.5547 212.569 14.5489C212.569 14.2137 212.597 13.8505 212.681 13.4873C213.132 11.2244 214.906 9.43649 217.16 8.96156C217.554 8.87775 217.92 8.82187 218.314 8.82187C220.398 8.79393 222.37 9.88348 223.778 11.7832C224.651 12.9565 225.102 14.3255 225.13 15.7223C225.13 16.1693 225.102 16.6442 224.989 17.0912C224.623 18.8233 223.722 20.3598 222.483 21.5332C223.046 21.5053 223.609 21.5891 224.144 21.8126C225.13 22.1757 225.919 22.9859 226.285 23.9637C226.82 25.3885 226.567 26.8133 225.581 27.7631C224.849 28.4616 223.863 28.7968 222.877 28.685C223.919 29.0762 227.355 29.9701 231.664 26.953C233.861 25.4444 236.368 24.2989 238.34 23.9078L238.537 23.852C239.297 23.6843 240.058 23.6005 240.818 23.6285C240.058 23.5167 239.241 23.2373 238.34 22.8462ZM249.437 5.10625C248.901 6.30754 248.451 7.76027 248.479 8.93362C248.479 9.15712 248.507 9.38061 248.535 9.57617C248.592 9.88347 248.732 10.0511 248.873 10.1628C249.014 10.2746 249.211 10.3305 249.38 10.3305H249.408C249.577 10.3305 249.775 10.2746 249.915 10.1628C250.056 10.0511 250.169 9.91141 250.253 9.6041C250.31 9.32474 250.338 9.01743 250.338 8.68219C250.31 7.50883 249.887 6.1958 249.437 5.10625ZM248.479 12.9845C248.789 13.2359 249.07 13.5153 249.324 13.8226C249.577 13.5153 249.887 13.2638 250.197 13.0124C249.944 13.0683 249.69 13.0962 249.437 13.1242H249.352C249.042 13.0962 248.761 13.0404 248.479 12.9845ZM250.225 22.5389C249.859 22.2316 249.549 21.8684 249.268 21.5053C248.986 21.8684 248.648 22.2037 248.282 22.511C247.071 23.5167 245.606 24.0475 244.057 24.0754H243.916C243.775 24.0754 243.606 24.0754 243.466 24.0475C243.381 24.0475 243.212 24.0475 242.987 24.0475C243.437 24.1872 243.86 24.3548 244.282 24.5504C245.099 24.9415 245.888 25.4723 246.564 26.1148C247.662 27.1485 248.423 28.4057 248.817 29.7467C249.211 28.4057 249.972 27.1765 251.07 26.1148C251.746 25.4723 252.535 24.9415 253.351 24.5504C253.661 24.4107 253.971 24.271 254.281 24.1872C252.816 24.0755 251.38 23.5167 250.225 22.5389ZM280.587 21.5053C281.066 21.617 281.516 21.6729 281.995 21.6729C283.46 21.6449 284.896 21.0583 286.192 19.8849H282.474C282.361 19.9128 282.249 19.9408 282.136 19.9687L281.911 19.9967C281.629 19.9967 281.376 19.9128 281.15 19.7732C280.981 19.6893 280.812 19.5217 280.728 19.3541C280.643 19.2144 280.559 19.0468 280.531 18.8792L280.503 18.6557C280.503 17.9852 280.953 17.3985 281.629 17.2868C282.671 17.0912 283.432 16.1693 283.404 15.1356C283.404 15.0239 283.404 14.8842 283.375 14.7724C283.15 13.5712 282.249 12.6213 281.066 12.3419C280.812 12.2861 280.559 12.2581 280.305 12.2581C279.235 12.2861 278.165 12.8727 277.235 14.0461C276.672 14.8004 276.362 15.6944 276.362 16.5604C276.362 16.756 276.39 16.9795 276.419 17.175C276.813 19.2424 278.446 20.9744 280.587 21.5053ZM276.334 26.8691C276.447 27.1765 276.447 27.4838 276.362 27.7631C276.503 27.5955 276.616 27.4279 276.7 27.2323C276.982 26.6177 276.982 25.9472 276.757 25.3047C276.419 24.4107 275.405 23.9637 274.503 24.2989C274.222 24.4107 273.996 24.6342 273.884 24.9415C273.715 25.3885 273.743 25.7796 273.968 26.0031C274.165 26.1707 274.419 26.2545 274.672 26.1428C275.32 25.8914 276.081 26.2266 276.334 26.8691ZM288.755 13.0404C288.727 12.8169 288.67 12.5934 288.614 12.3978C287.91 9.68792 285.938 7.59264 283.15 6.67072C282.136 6.33548 281.094 6.16786 280.08 6.1958C278.108 6.22374 276.193 6.89422 274.616 8.12345L274.334 8.34694C272.447 9.71585 270.222 12.3699 268.561 15.1915C266.167 19.3541 263.237 21.617 260.731 22.8183C259.801 23.2653 258.928 23.5726 258.168 23.7681C258.506 23.7961 258.844 23.852 259.153 23.9358L259.351 23.9916C261.322 24.3828 263.829 25.5282 266.026 27.0368C270.335 30.054 273.771 29.16 274.813 28.7689C273.827 28.8806 272.842 28.5733 272.109 27.8469C271.124 26.8971 270.87 25.4723 271.405 24.0475C271.771 23.0418 272.56 22.2595 273.546 21.8964C274.25 21.6449 274.954 21.5611 275.658 21.6729C274.672 20.5554 273.968 19.1865 273.687 17.65C273.63 17.2868 273.574 16.9515 273.574 16.5883C273.546 15.0797 274.053 13.5991 275.01 12.3419C276.39 10.526 278.277 9.49236 280.249 9.46442C280.728 9.46442 281.207 9.5203 281.685 9.63204C283.939 10.1628 285.657 11.9787 286.079 14.2416C286.136 14.521 286.164 14.8004 286.164 15.0518C286.192 16.0855 285.854 17.0633 285.319 17.8734H287.854C288.558 16.728 288.896 15.4709 288.896 14.1858C288.867 13.7946 288.811 13.4035 288.755 13.0404Z" fill="#E2BD68"></path></svg>