<svg xmlns="http://www.w3.org/2000/svg" width="83" height="252" viewBox="0 0 83 252" fill="none"><path fill-rule="evenodd" clip-rule="evenodd" d="M1.70583 0.452592C2.49499 0.200589 3.33903 0.636048 3.59103 1.42522L82.7374 249.279C82.9894 250.068 82.5539 250.912 81.7648 251.164C80.9756 251.416 80.1316 250.981 79.8795 250.192L0.733201 2.3378C0.481198 1.54863 0.916657 0.704594 1.70583 0.452592Z" fill="#CA2D2C"></path><path d="M54.3911 125.808C54.3911 132.798 48.7249 138.464 41.7354 138.464C34.7458 138.464 29.0796 132.798 29.0796 125.808C29.0796 118.819 34.7458 113.153 41.7354 113.153C48.7249 113.153 54.3911 118.819 54.3911 125.808Z" fill="#CA2D2C"></path><path d="M51.8052 125.808C51.8052 131.37 47.2968 135.878 41.7354 135.878C36.1739 135.878 31.6655 131.37 31.6655 125.808C31.6655 120.247 36.1739 115.739 41.7354 115.739C47.2968 115.739 51.8052 120.247 51.8052 125.808Z" fill="white"></path><path d="M34.4691 125.808C34.4691 125.566 34.5513 125.363 34.7157 125.199C34.8795 125.034 35.0827 124.952 35.3253 124.952L44.8936 124.952L40.7195 120.778C40.5483 120.607 40.4626 120.403 40.4626 120.168C40.4626 119.932 40.5483 119.729 40.7195 119.558C40.8907 119.387 41.0905 119.301 41.3188 119.301C41.5472 119.301 41.747 119.387 41.9182 119.558L47.5692 125.209C47.6549 125.295 47.7156 125.387 47.7516 125.487C47.787 125.587 47.8047 125.694 47.8047 125.808C47.8047 125.923 47.787 126.033 47.7516 126.141C47.7156 126.247 47.6549 126.336 47.5692 126.408L41.9182 132.059C41.747 132.23 41.5472 132.316 41.3188 132.316C41.0905 132.316 40.8907 132.23 40.7195 132.059C40.5483 131.888 40.4626 131.684 40.4626 131.448C40.4626 131.213 40.5483 131.01 40.7195 130.839L44.8936 126.665L35.3253 126.665C35.0827 126.665 34.8795 126.583 34.7157 126.419C34.5513 126.254 34.4691 126.051 34.4691 125.808Z" fill="#CA2D2C"></path></svg>