<?xml version="1.0" encoding="UTF-8"?>
<svg xmlns="http://www.w3.org/2000/svg" width="139" height="55" viewBox="0 0 139 55" fill="none">
  <path d="M42.1447 16.723C38.9655 16.0076 37.3539 14.9177 37.3539 13.4824C37.3539 11.3651 38.5781 10.2547 41.0733 10.0878C43.4802 10.0878 44.7715 11.1228 45.0266 13.2823C45.1506 13.882 45.5771 14.2125 46.2278 14.2125H47.2309L47.2098 13.843C46.9873 9.91521 44.9691 7.92383 41.1934 7.92383C37.157 8.11434 35.1573 10.0789 35.2525 13.7631C35.3177 16.1726 37.1416 17.8354 40.6686 18.7042C43.796 19.5231 45.3808 20.7237 45.3808 22.2733C45.3808 24.5607 44.0076 25.6884 41.1826 25.7223C41.1519 25.7223 41.1206 25.7229 41.0899 25.7229C38.3256 25.7229 36.9409 24.218 36.8565 21.1245L36.8469 20.7844H34.6478L34.6657 21.1507C34.883 25.6232 36.9447 27.8895 40.7913 27.8888C40.8546 27.8888 40.9186 27.8882 40.9831 27.8869C45.2951 27.8869 47.4815 25.9435 47.4815 22.1103C47.4809 19.4464 45.6896 17.6346 42.1447 16.723Z" fill="#333333"></path>
  <path d="M57.6775 12.1023C56.7039 12.1023 55.8063 12.3887 55.0111 12.9538C54.6192 13.2319 54.2823 13.558 54.0029 13.9281V9.14175C54.0029 8.51525 53.6698 8.14062 53.1104 8.14062H51.766V27.7246H54.0023V19.995C54.0023 18.4613 54.281 17.067 54.8301 15.8524C55.346 14.7125 56.2775 14.1583 57.6769 14.1583C58.405 14.1583 58.981 14.3826 59.4388 14.8436C60.3063 15.7175 60.7365 17.45 60.718 19.995V27.7246H62.9095V19.7233C62.9095 17.3259 62.5694 15.4554 61.8981 14.1627C61.1885 12.7953 59.768 12.1023 57.6775 12.1023Z" fill="#333333"></path>
  <path d="M76.6299 13.0069C75.7745 12.4066 74.5126 12.1023 72.8798 12.1023C69.7876 12.1023 68.103 13.3962 67.8742 15.9483L67.8403 16.3293H70.0164L70.0599 16.0301C70.2434 14.7707 71.1806 14.1582 72.9239 14.1582C75.5284 14.1582 75.8295 15.1977 75.8295 15.9796C75.8295 16.5792 75.4843 17.0856 74.7625 17.535C74.3233 17.8322 73.5312 18.088 72.4202 18.2932C68.8625 18.827 67.0584 20.5499 67.0584 23.4145C67.0584 26.3418 68.7116 27.8889 71.839 27.8889C75.9113 27.8889 77.9762 26.1283 77.9762 22.655V15.9789C77.9769 14.6345 77.5236 13.634 76.6299 13.0069ZM75.7406 22.8168C75.7406 24.8817 74.4646 25.886 71.8397 25.886C70.1347 25.886 69.3407 25.0831 69.3407 23.3595C69.3407 21.7262 70.3137 20.7378 72.3153 20.3376L72.3185 20.337C73.847 20.0167 74.976 19.6421 75.7406 19.1997V22.8168Z" fill="#333333"></path>
  <path d="M92.9196 8.14062H91.6206V13.9281C91.3406 13.5573 91.0043 13.2319 90.613 12.9538C89.8184 12.3887 88.9209 12.1023 87.9459 12.1023C85.8337 12.1023 84.3026 12.8816 83.3955 14.4178C82.5235 15.8952 82.0805 17.7715 82.0805 19.995C82.0805 22.2555 82.5229 24.142 83.3961 25.6015C84.3039 27.1186 85.8344 27.8883 87.9459 27.8883C90.0179 27.8883 91.5445 27.1985 92.4842 25.8374C93.3952 24.5179 93.8568 22.5521 93.8568 19.995V9.14175C93.8562 8.51525 93.5065 8.14062 92.9196 8.14062ZM90.792 24.1919C90.2761 25.3311 89.3453 25.8854 87.9453 25.8854C86.5459 25.8854 85.6144 25.3311 85.0992 24.1919C84.55 22.9766 84.2713 21.5644 84.2713 19.9943C84.2713 18.4607 84.55 17.0664 85.0992 15.8517C85.6151 14.7119 86.5459 14.1583 87.9453 14.1583C89.3453 14.1583 90.2761 14.7125 90.792 15.8517C91.3412 17.067 91.6199 18.4607 91.6199 19.9943C91.6199 21.5644 91.3418 22.9766 90.792 24.1919Z" fill="#333333"></path>
  <path d="M99.5311 8.14062H98.1867V10.6307H100.423V9.14175C100.424 8.51525 100.09 8.14062 99.5311 8.14062Z" fill="#333333"></path>
  <path d="M99.5311 12.3191H98.1867V27.7247H100.423V13.3746C100.424 12.3952 99.7408 12.3191 99.5311 12.3191Z" fill="#333333"></path>
  <path d="M106.015 24.7444H103.697V27.5253H106.015V24.7444Z" fill="#CF3533"></path>
  <path d="M115.739 8.14014H109.861C109.275 8.14014 108.924 8.51412 108.924 9.14126V27.7241H111.16V19.2587H115.299C118.849 19.1436 120.682 17.2941 120.746 13.7601C120.779 11.855 120.332 10.4115 119.417 9.4705C118.577 8.60618 117.342 8.15868 115.739 8.14014ZM115.287 17.094H111.16V10.3048H115.542C117.712 10.4051 118.683 11.4791 118.599 13.6872C118.515 16.0117 117.463 17.094 115.287 17.094Z" fill="#CF3533"></path>
  <path d="M131.059 16.004L137.611 8.14014H134.577L127.313 16.8083V8.14014H126.014C125.427 8.14014 125.076 8.51412 125.076 9.14126V27.7241H127.313V20.2655C127.313 19.4664 127.646 18.9217 128.332 18.6015C128.57 18.4909 129.295 18.1514 130.288 19.4798L135.682 27.7241H138.686L131.059 16.004Z" fill="#CF3533"></path>
  <g opacity="0.7">
    <path d="M138.748 33.9954H2.19427V34.4147H138.748V33.9954Z" fill="#333333"></path>
  </g>
  <path d="M6.74855 47.7286C6.74855 47.1124 7.40063 46.638 8.76295 46.638H8.95282C8.9541 46.638 8.95538 46.638 8.95666 46.638C9.72508 46.6361 10.4219 46.2698 10.7179 45.7494C10.8713 46.1643 11.2389 46.6387 11.9978 46.6387C12.9816 46.6387 13.7641 45.8683 13.7641 44.5175C13.7641 43.8654 13.6337 43.2728 13.4796 42.9768L12.614 43.2255C12.8154 43.6282 13.0174 44.2682 13.0174 44.6831C13.0174 45.2162 12.6262 45.596 12.1045 45.596C11.6538 45.596 11.2747 45.4183 11.2984 44.6716C11.2984 44.4229 11.3578 44.1857 11.393 44.0195L10.6463 44.0553C10.4206 45.2642 9.7807 45.5602 8.95154 45.5602H8.86971C7.77909 45.5602 6.80737 46.0345 6.35667 46.6623C6.15529 46.9468 5.98972 47.3853 5.98972 47.8597C5.98972 48.974 6.78371 49.5545 8.7035 49.5545C10.7658 49.5545 13.1715 49.424 14.5703 49.2348L14.8547 48.2752C13.5039 48.4293 10.0307 48.5597 8.67984 48.5597C7.18646 48.5584 6.74855 48.2503 6.74855 47.7286Z" fill="#CF3533"></path>
  <path d="M12.0559 51.2717C11.641 51.7576 11.3687 52.2671 11.3687 52.8834C11.3687 53.5476 11.7242 54.1875 12.0086 54.4599L12.7432 54.0923C12.4108 53.7132 12.2222 53.2625 12.2222 52.8476C12.2222 52.3023 12.4587 51.9232 12.7432 51.5441L12.0559 51.2717Z" fill="#CF3533"></path>
  <path d="M23.005 43.1539C22.0212 42.7153 21.0495 42.2416 19.9588 42.2416C19.5561 42.2416 18.9392 42.3004 18.5249 42.5024L18.3587 43.4741C18.8215 43.2728 19.4378 43.2018 19.9467 43.2018C20.99 43.2018 22.2341 43.9248 23.1348 44.2445C22.7909 44.3512 22.4476 44.529 21.8901 44.7776C20.5745 45.3818 19.2236 45.5601 17.8728 45.5601H17.7303C17.7284 45.5601 17.7277 45.5608 17.7258 45.5608C17.7239 45.5608 17.722 45.5601 17.72 45.5601C16.9139 45.5128 16.4165 45.1574 16.3692 43.889L16.1436 38.0344L15.2543 38.0939L15.4915 44.1857C15.5624 45.9993 16.3328 46.6393 17.7194 46.6393C17.722 46.6393 17.7239 46.6386 17.7264 46.6386C17.7277 46.6386 17.7284 46.6393 17.7296 46.6393H17.86C19.6609 46.6393 20.9299 46.3784 22.6835 45.3594C23.62 44.8141 24.2005 44.6006 24.7465 44.6006H24.9357L25.1019 43.6167H24.6634C24.2018 43.6161 23.8706 43.5329 23.005 43.1539Z" fill="#CF3533"></path>
  <path d="M22.282 47.8833C21.9259 47.8833 21.6894 48.132 21.6894 48.5232C21.6894 48.8672 21.9259 49.1395 22.282 49.1395C22.6381 49.1395 22.8625 48.8672 22.8625 48.5232C22.8631 48.132 22.6381 47.8833 22.282 47.8833Z" fill="#CF3533"></path>
  <path d="M21.488 49.3174C21.1441 49.3174 20.8717 49.5546 20.8717 49.9452C20.8717 50.3128 21.1326 50.5736 21.488 50.5736C21.8204 50.5736 22.0685 50.3128 22.0685 49.9452C22.0685 49.5539 21.8204 49.3174 21.488 49.3174Z" fill="#CF3533"></path>
  <path d="M21.3103 48.5232C21.3103 48.132 21.0379 47.8833 20.7061 47.8833C20.3744 47.8833 20.1135 48.132 20.1135 48.5232C20.1135 48.8672 20.3737 49.1395 20.7061 49.1395C21.0501 49.1389 21.3103 48.8665 21.3103 48.5232Z" fill="#CF3533"></path>
  <path d="M32.6187 42.2654C32.9978 42.2654 33.2465 42.0161 33.2465 41.6133C33.2465 41.2457 32.9971 40.9734 32.6296 40.9734C32.2626 40.9734 32.0133 41.2457 32.0133 41.6133C32.0139 42.0161 32.2632 42.2654 32.6187 42.2654Z" fill="#CF3533"></path>
  <path d="M39.7276 42.5142C38.8268 42.5142 38.3531 43.0946 37.8551 44.5171C37.6179 45.2043 37.3686 45.5719 36.7881 45.5597C36.7625 45.5597 36.7478 45.568 36.7242 45.5693C36.4224 45.5642 36.1264 45.5175 35.9251 45.4057C35.771 44.4697 35.3324 43.4501 35.1662 43.1061L34.3006 43.4737C34.4905 43.8528 34.8581 44.588 35.0946 45.5482C35.1541 45.8091 35.1656 46.0104 35.1656 46.3422C35.1656 46.449 35.0825 46.7571 34.9521 46.9585C34.4547 47.8356 33.5654 48.1437 32.783 48.1437C31.4673 48.1437 30.6497 47.3139 30.6497 46.0814C30.6497 45.5124 30.7801 45.0151 30.9463 44.4819L30.2469 44.3751C30.0097 44.8495 29.7962 45.5962 29.7962 46.2834C29.7962 48.014 30.8632 49.1992 32.6641 49.1992C34.0628 49.1992 34.9987 48.5356 35.5447 47.6112C35.7218 47.3152 35.8765 46.8645 35.9238 46.5091C36.1015 46.6037 36.5017 46.6395 36.7747 46.6395H36.799C36.8188 46.6395 36.8322 46.6344 36.8514 46.6337C36.8949 46.6312 36.9377 46.6273 36.9748 46.6203C37.5412 46.5743 37.8717 46.3198 38.1504 45.7624C38.9566 46.3787 39.6438 46.6395 40.3074 46.6395C41.0662 46.6395 41.6588 46.0232 41.6588 45.1346C41.6601 44.0197 40.9486 42.5142 39.7276 42.5142ZM40.356 45.5955C39.7282 45.5955 38.9815 45.2043 38.543 44.8015C38.8863 43.6994 39.2187 43.4386 39.6802 43.4386C40.3323 43.4386 40.9134 44.3866 40.9134 45.0982C40.9134 45.4888 40.6641 45.5955 40.356 45.5955Z" fill="#CF3533"></path>
  <path d="M49.4722 43.1775L48.9512 42.6917C48.062 43.0592 46.9605 44.1499 46.9605 45.4885C46.9605 46.3541 47.4227 46.8042 47.991 46.8042C48.5485 46.8042 48.9512 46.413 48.9512 45.8318C48.9512 45.2156 48.4654 44.8723 47.8018 45.0142C47.8836 44.3749 48.5363 43.6046 49.4722 43.1775Z" fill="#CF3533"></path>
  <path d="M62.3073 48.345C61.964 48.345 61.7031 48.5943 61.7031 48.9734C61.7031 49.3646 61.964 49.6012 62.3073 49.6012C62.6633 49.6012 62.9114 49.3525 62.9114 48.9734C62.9114 48.5943 62.6627 48.345 62.3073 48.345Z" fill="#CF3533"></path>
  <path d="M63.8953 48.345C63.5513 48.345 63.3148 48.5943 63.3148 48.9734C63.3148 49.3646 63.5513 49.6012 63.8953 49.6012C64.2622 49.6012 64.4994 49.3525 64.4994 48.9734C64.4994 48.5943 64.2622 48.345 63.8953 48.345Z" fill="#CF3533"></path>
  <path d="M71.4906 42.5141C70.5899 42.5141 70.1162 43.0945 69.6182 44.517C69.381 45.2042 69.1317 45.5718 68.5512 45.5596C68.5493 45.5596 68.548 45.5603 68.5461 45.5603C68.5442 45.5603 68.5422 45.5596 68.5397 45.5596C67.6031 45.5238 67.2362 45.0501 67.1889 43.5568L66.9753 38.0339L66.0861 38.1049L66.2875 43.5683C66.3469 45.0252 65.9442 45.5584 64.9501 45.5596C64.1804 45.5354 63.5532 45.2509 63.5532 44.1967C63.5532 43.9595 63.6005 43.5804 63.6721 43.2013L62.9376 43.2486C62.843 43.9243 62.3565 44.3149 61.6334 44.3149C60.8158 44.3149 60.5671 43.971 60.1637 43.1419L59.3224 43.521C59.8684 44.6231 60.2117 45.5718 60.2117 46.1638C60.2117 46.9699 59.4886 48.143 57.7939 48.143C56.4782 48.143 55.6606 47.3132 55.6606 46.057C55.6606 45.5354 55.7795 45.0137 55.945 44.4927L55.2693 44.3859C55.0436 44.8245 54.8186 45.5948 54.8186 46.2584C54.8186 48.0126 55.8734 49.1978 57.675 49.1978C58.9555 49.1978 60.0576 48.5937 60.6266 47.5389C60.8516 47.0882 60.9935 46.5787 60.9935 46.0807C60.9935 45.8198 60.9226 45.4171 60.851 45.1563C61.0172 45.2272 61.2901 45.2867 61.5382 45.2867C62.0598 45.2867 62.5694 45.1563 62.866 44.7292C62.9012 46.0935 63.8352 46.6279 64.9271 46.6356C64.9309 46.6356 64.9328 46.6368 64.936 46.6368C64.9392 46.6368 64.9418 46.6362 64.9443 46.6362C64.9469 46.6362 64.9488 46.6368 64.9514 46.6368C64.9629 46.6368 64.9718 46.6349 64.9833 46.6343C65.8591 46.6209 66.4946 46.2558 66.8328 45.5111C67.0572 46.2693 67.6734 46.6368 68.5378 46.6368H68.5621C68.5851 46.6368 68.6017 46.6305 68.6241 46.6298C68.6618 46.6266 68.7001 46.6241 68.7334 46.6177C69.303 46.5729 69.6341 46.3185 69.9135 45.7591C70.7197 46.3754 71.4069 46.6362 72.0705 46.6362C72.8293 46.6362 73.4219 46.0199 73.4219 45.1313C73.4232 44.0196 72.7117 42.5141 71.4906 42.5141ZM72.1184 45.5954C71.4906 45.5954 70.744 45.2042 70.3054 44.8014C70.6487 43.6993 70.9811 43.4385 71.4427 43.4385C72.0948 43.4385 72.6759 44.3865 72.6759 45.0981C72.6765 45.4887 72.4272 45.5954 72.1184 45.5954Z" fill="#CF3533"></path>
  <path d="M83.9951 41.224C84.3621 41.224 84.5992 40.9868 84.5992 40.5962C84.5992 40.2171 84.3621 39.9678 83.9951 39.9678C83.6512 39.9678 83.4146 40.2171 83.4146 40.5962C83.414 40.9868 83.6512 41.224 83.9951 41.224Z" fill="#CF3533"></path>
  <path d="M82.4065 41.224C82.7626 41.224 83.0106 40.9868 83.0106 40.5962C83.0106 40.2171 82.7619 39.9678 82.4065 39.9678C82.0626 39.9678 81.8024 40.2171 81.8024 40.5962C81.8024 40.9868 82.0626 41.224 82.4065 41.224Z" fill="#CF3533"></path>
  <path d="M79.9197 46.9231C80.6785 46.5555 81.117 46.3663 81.6266 46.0933C82.207 45.7737 82.7402 45.4298 83.0368 44.8493C83.203 46.2103 84.0303 46.6374 85.0595 46.6387H85.0608H85.0615H85.0634C85.1484 46.6387 85.22 46.6278 85.2846 46.6131C85.9629 46.5511 86.5254 46.2321 86.8029 45.7731C86.9218 46.2238 87.2171 46.6387 87.9402 46.6387C88.6159 46.6387 89.0666 46.3305 89.3505 45.8089C89.5167 46.2238 89.8606 46.6387 90.6188 46.6387C91.602 46.6387 92.3845 45.8683 92.3845 44.5175C92.3845 43.8654 92.2547 43.2728 92.1007 42.9768L91.2351 43.2255C91.4365 43.6282 91.6378 44.2682 91.6378 44.6831C91.6378 45.2162 91.2472 45.596 90.7256 45.596C90.2749 45.596 89.8958 45.4183 89.9194 44.6716C89.9194 44.4229 89.9789 44.1857 90.0134 44.0195L89.2667 44.0553C89.0538 45.2642 88.6741 45.6081 88.0463 45.6081C87.4773 45.6081 87.3706 45.1101 87.3942 44.6952C87.4064 44.4107 87.4773 44.1499 87.5604 43.8776L86.8016 43.9134C86.6117 44.9094 86.2083 45.5608 85.0589 45.5608C85.0423 45.5608 85.0321 45.5672 85.0161 45.5678C83.921 45.5141 83.6748 44.8391 83.6748 44.1032C83.6748 43.9607 83.687 43.7356 83.7106 43.5458L83.0113 43.6052C82.7977 44.281 82.4308 44.6479 81.4706 45.1817C80.8306 45.5257 79.9772 45.8811 79.3373 46.2602C78.4717 46.7582 77.9865 47.4333 77.9865 48.1212C77.9865 49.1638 78.8629 49.6024 80.7002 49.6024C84.3033 49.6024 88.0604 49.3416 89.4355 49.1165L89.743 48.157C87.5624 48.382 84.5161 48.6077 80.8306 48.6077C79.2305 48.6077 78.7568 48.4178 78.7568 48.0387C78.7581 47.6455 79.327 47.1955 79.9197 46.9231Z" fill="#CF3533"></path>
  <path d="M89.5288 41.3997C89.5288 41.8025 89.7781 42.0397 90.1214 42.0397C90.4775 42.0397 90.7025 41.791 90.7025 41.3997C90.7025 41.0558 90.4769 40.7834 90.1214 40.7834C89.7781 40.7834 89.5288 41.0564 89.5288 41.3997Z" fill="#CF3533"></path>
  <path d="M89.3511 40.6058C89.7187 40.6058 89.9443 40.3686 89.9443 39.978C89.9443 39.6104 89.7187 39.3496 89.3511 39.3496C89.0078 39.3496 88.7706 39.6104 88.7706 39.978C88.77 40.3808 89.0071 40.6058 89.3511 40.6058Z" fill="#CF3533"></path>
  <path d="M88.5565 42.0397C88.9004 42.0397 89.1497 41.791 89.1497 41.3997C89.1497 41.0558 88.9004 40.7834 88.5565 40.7834C88.2247 40.7834 87.9638 41.0564 87.9638 41.3997C87.9645 41.8031 88.2017 42.0397 88.5565 42.0397Z" fill="#CF3533"></path>
  <path d="M94.0543 42.4781C95.0504 44.481 95.1686 45.5358 95.1686 45.9744C95.1686 46.14 95.0619 46.5907 94.8841 46.934C94.3152 48.0003 93.4617 48.2618 92.9528 48.2618C92.5021 48.2618 92.0994 48.2145 91.5892 47.93L91.4358 48.6645C91.696 48.9605 92.2893 49.2572 93.036 49.2572C94.0665 49.2572 95.1693 48.5105 95.7024 47.1475C95.8565 46.7684 95.9633 46.1994 95.9633 45.8197C95.9633 44.6818 95.4295 43.0701 94.9321 42.0984L94.0543 42.4781Z" fill="#CF3533"></path>
  <path d="M105.529 42.3836C106.299 43.9128 106.56 44.9676 106.56 45.667C106.56 45.7853 106.489 46.0583 106.418 46.1765C105.967 47.0894 105.007 47.4091 104.011 47.4091C102.744 47.4091 101.783 46.6745 101.783 45.3467C101.783 45.0981 101.831 44.4818 102.021 43.877L101.345 43.7587C101.084 44.2919 100.93 45.0744 100.93 45.6434C100.93 47.3381 102.091 48.4876 103.869 48.4876C105.292 48.4876 106.489 47.8713 107.07 46.6861C107.212 46.4016 107.343 45.8684 107.343 45.513C107.343 44.1852 106.809 42.8107 106.442 42.0876L105.529 42.3836Z" fill="#CF3533"></path>
  <path d="M124.002 43.6161C123.539 43.6161 123.208 43.5329 122.342 43.1538C121.358 42.7153 120.387 42.2416 119.296 42.2416C118.893 42.2416 118.276 42.3004 117.862 42.5024L117.696 43.4741C118.159 43.2728 118.775 43.2018 119.284 43.2018C120.327 43.2018 121.571 43.9248 122.472 44.2445C122.128 44.3512 121.785 44.529 121.227 44.7776C119.912 45.3818 118.561 45.5601 117.21 45.5601H117.067C117.04 45.5601 117.022 45.5697 116.996 45.5723H116.5C115.362 45.5601 114.698 46.1649 114.698 47.5637C114.698 48.0259 114.793 48.6543 114.876 48.9739L114.829 49.0097C114.212 48.405 113.94 47.6346 113.94 46.7102C113.94 45.7973 114.236 45.0506 114.84 43.7944L114.058 43.6525C113.619 44.6479 113.086 45.5723 111.758 45.5723H111.377C111.345 45.5691 111.318 45.5601 111.285 45.5601C110.479 45.5128 109.982 45.1574 109.934 43.889L109.709 38.0344L108.819 38.0939L109.057 44.1857C109.127 45.9987 109.897 46.6386 111.283 46.6393H111.283H111.603C112.279 46.6393 112.824 46.473 113.156 46.177C113.109 46.4615 113.097 46.7345 113.097 46.9116C113.097 48.263 113.808 49.5902 114.934 50.42L115.763 49.8395C115.609 49.2942 115.444 48.4766 115.444 47.813C115.444 46.9359 115.763 46.6399 116.51 46.6399H117.055C117.058 46.6399 117.06 46.6393 117.062 46.6393C117.064 46.6393 117.064 46.6399 117.066 46.6399H117.196C118.997 46.6399 120.266 46.3791 122.019 45.36C122.956 44.8147 123.536 44.6012 124.082 44.6012H124.272L124.438 43.6173H124.002V43.6161Z" fill="#CF3533"></path>
  <path d="M120.837 47.8833C120.47 47.8833 120.221 48.1441 120.221 48.5232C120.221 48.926 120.47 49.1753 120.825 49.1753C121.205 49.1753 121.441 48.9266 121.441 48.5232C121.441 48.1435 121.205 47.8833 120.837 47.8833Z" fill="#CF3533"></path>
  <g opacity="0.75">
    <path d="M8.64086 28.4072C7.19032 28.4072 6.03384 28.2314 5.1593 27.8798C3.77076 27.3223 2.6405 26.4753 1.88805 25.4307C0.0353954 22.8569 0.110192 19.3689 2.07025 16.9473C3.05795 15.7282 4.6907 15.0409 6.93396 14.8984C6.60665 12.6743 6.93972 10.9341 7.92678 9.71502C9.88812 7.29404 13.2834 6.49493 16.1877 7.77286C17.3659 8.29133 18.4297 9.22213 19.2633 10.463C20.6058 12.4627 21.9994 16.7152 21.0169 25.6205L20.9427 26.2911L20.2893 26.4606C15.2748 27.7615 11.4192 28.4072 8.64086 28.4072ZM7.8539 16.8284C6.35477 16.8284 4.48485 17.0764 3.59176 18.1798C2.18532 19.9168 2.13802 22.4286 3.47605 24.287C4.01113 25.0305 4.84541 25.6448 5.88745 26.0636C7.30795 26.6338 10.7601 26.8512 19.1393 24.7345C19.9601 16.4614 18.5613 12.9332 17.6357 11.5549C17.0098 10.6222 16.2356 9.93366 15.3969 9.56479C13.3006 8.6423 10.8528 9.20999 9.44701 10.9476C8.5047 12.1111 8.71822 14.137 9.06279 15.6323L9.34408 16.8527L8.09171 16.8309C8.015 16.829 7.93509 16.8284 7.8539 16.8284Z" fill="black"></path>
  </g>
  <path d="M8.19528 27.9624C6.74409 27.9624 5.58826 27.786 4.71371 27.435C3.32517 26.8776 2.19491 26.0305 1.44247 24.9859C-0.410192 22.4121 -0.335395 18.9235 1.62467 16.5019C2.61237 15.2828 4.24575 14.5956 6.48838 14.453C6.16106 12.2289 6.49413 10.4894 7.48119 9.26964C9.44317 6.84865 12.841 6.05145 15.7421 7.32811C16.9203 7.84658 17.9834 8.77674 18.8177 10.0182C20.1602 12.0186 21.5539 16.2718 20.57 25.1764L20.4965 25.847L19.8438 26.0165C14.8298 27.3161 10.9736 27.9624 8.19528 27.9624ZM7.40703 16.3836C5.9079 16.3836 4.03926 16.6317 3.14681 17.7345C1.74038 19.4714 1.69307 21.9832 3.0311 23.8422C3.56619 24.5857 4.40046 25.2001 5.4425 25.6188C6.86172 26.1884 10.3126 26.4083 18.6943 24.2897C19.5158 16.0173 18.117 12.4885 17.1914 11.1095C16.5655 10.1768 15.7913 9.48891 14.9526 9.12004C12.8557 8.19627 10.4085 8.76588 9.0027 10.5022C8.06039 11.6657 8.27391 13.6922 8.61849 15.1869L8.89977 16.4073L7.64741 16.3856C7.56941 16.3843 7.48822 16.3836 7.40703 16.3836Z" fill="#C7151F"></path>
  <path d="M4.73353 23.9406C4.67535 23.9406 4.61846 23.9144 4.5801 23.8652C3.75414 22.8046 3.42299 21.331 3.73688 20.1106C3.9472 19.2911 4.43178 18.6818 5.10048 18.3941C5.19957 18.3526 5.314 18.3973 5.35556 18.4964C5.39775 18.5949 5.35236 18.7093 5.25391 18.7521C4.69901 18.9912 4.2937 19.5078 4.11406 20.2078C3.82957 21.3151 4.1326 22.6569 4.8876 23.6261C4.95408 23.7111 4.9381 23.8332 4.85371 23.8991C4.81791 23.9272 4.77572 23.9406 4.73353 23.9406Z" fill="#C7151F"></path>
  <g opacity="0.75">
    <path d="M20.228 21.8873C18.7826 21.8873 17.6299 21.7121 16.7573 21.3618C15.3726 20.8056 14.2436 19.9605 13.4931 18.9172C11.643 16.3479 11.7184 12.8657 13.6759 10.4485C14.6559 9.23706 16.2721 8.55174 18.4853 8.40279C18.1708 6.20555 18.5057 4.48331 19.4864 3.27249C21.4439 0.854063 24.8347 0.0575085 27.732 1.33353C28.9089 1.85071 29.9707 2.7796 30.8018 4.0179C32.1379 6.00737 33.5258 10.2369 32.5484 19.0859L32.4716 19.7809L31.7953 19.956C26.8197 21.2461 22.9897 21.8873 20.228 21.8873ZM19.4455 10.3986C17.9675 10.3986 16.1276 10.6422 15.2511 11.7239C13.8671 13.4321 13.821 15.9029 15.138 17.7319C15.6641 18.4633 16.4849 19.0674 17.5123 19.4797C18.6617 19.9413 21.8805 20.3671 30.6062 18.1673C31.4143 9.99206 30.0328 6.50793 29.1192 5.14753C28.5023 4.22823 27.7409 3.55058 26.9162 3.18875C24.8552 2.28096 22.4457 2.83906 21.0629 4.54787C20.1391 5.68837 20.3507 7.68551 20.6902 9.15971L20.9817 10.4236L19.6852 10.4012C19.606 10.3993 19.526 10.3986 19.4455 10.3986Z" fill="black"></path>
  </g>
  <path d="M20.228 21.4417C18.7826 21.4417 17.6299 21.2665 16.7573 20.9162C15.3726 20.3593 14.2436 19.5142 13.4931 18.4715C11.643 15.9016 11.7184 12.4194 13.6759 10.0022C14.6566 8.79141 16.2721 8.10545 18.4853 7.95649C18.1708 5.75926 18.5057 4.03637 19.4864 2.82556C21.4439 0.409049 24.8328 -0.389423 27.732 0.886598C28.9089 1.40442 29.9707 2.33267 30.8018 3.57161C32.1379 5.56108 33.5258 9.78998 32.5484 18.6397L32.4716 19.3346L31.7953 19.5097C26.8197 20.8004 22.9904 21.4417 20.228 21.4417ZM19.4455 9.95363C17.9675 9.95363 16.1276 10.1972 15.2511 11.2789C13.8671 12.9871 13.821 15.4579 15.138 17.2869C15.6635 18.0176 16.4849 18.6218 17.5123 19.0347C18.6617 19.4957 21.8805 19.9214 30.6062 17.7216C31.4143 9.54641 30.0328 6.06292 29.1192 4.70251C28.5023 3.78322 27.7409 3.10557 26.9162 2.74309C24.8507 1.83338 22.445 2.39404 21.0629 4.10222C20.1391 5.24271 20.3507 7.23985 20.6902 8.71405L20.9817 9.97793L19.6852 9.95555C19.606 9.95427 19.526 9.95363 19.4455 9.95363Z" fill="url(#paint0_linear_2415_203)"></path>
  <path d="M16.9018 17.9C16.8493 17.9 16.7969 17.8808 16.7554 17.8418C15.6858 16.8381 15.0791 15.3058 15.2108 13.937C15.2997 13.0178 15.7184 12.2781 16.391 11.8549C16.4907 11.7922 16.623 11.8216 16.6863 11.922C16.7496 12.0217 16.7196 12.1541 16.6198 12.2167C16.0617 12.5677 15.7127 13.1936 15.6379 13.978C15.5177 15.2195 16.0726 16.6137 17.0494 17.5299C17.1357 17.6104 17.1402 17.7459 17.059 17.8322C17.0162 17.877 16.9587 17.9 16.9018 17.9Z" fill="#87191E"></path>
  <path d="M18.0052 11.5429C17.6906 11.5429 17.3806 11.3914 17.192 11.1101C16.5661 10.1774 15.7919 9.48888 14.9532 9.12001C14.459 8.90201 14.234 8.32473 14.452 7.82992C14.67 7.33512 15.2466 7.11072 15.7427 7.32808C16.9209 7.84655 17.9841 8.77671 18.8183 10.0182C19.1194 10.467 18.9999 11.0756 18.5511 11.3767C18.383 11.4892 18.1931 11.5429 18.0052 11.5429Z" fill="#C7151F"></path>
  <defs>
    <linearGradient id="paint0_linear_2415_203" x1="12.1547" y1="10.8631" x2="32.8773" y2="10.8631" gradientUnits="userSpaceOnUse">
      <stop stop-color="#742424"></stop>
      <stop offset="0.6555" stop-color="#AE1A21"></stop>
      <stop offset="1" stop-color="#C7151F"></stop>
    </linearGradient>
  </defs>
</svg>
