<svg xmlns="http://www.w3.org/2000/svg" width="498" height="39" viewBox="0 0 498 39" fill="none"><path d="M495.958 19.8842H289.853C289.741 19.7166 289.628 19.5769 289.515 19.4093C287.516 16.8391 284.812 15.3585 281.995 15.3305C281.319 15.3305 280.615 15.3864 279.939 15.554C279.601 15.6378 279.263 15.7496 278.925 15.8613C279.01 15.6937 279.094 15.5261 279.151 15.3585C279.658 14.1013 279.601 12.7044 279.066 11.4473C278.531 10.2181 277.517 9.2682 276.278 8.79327C275.574 8.43009 270.617 6.33482 264.533 10.5812C262.646 11.8943 260.449 12.9 258.787 13.2352L258.562 13.2911C256.534 13.766 254.422 13.1794 252.873 11.7267C251.436 10.3857 250.845 8.54184 251.183 6.67006C251.211 6.53038 251.239 6.36275 251.295 6.22307C251.633 4.93797 252.507 3.87636 253.774 3.23381C255.605 2.31189 257.379 2.36777 258.646 3.3735C259.773 4.26748 260.252 5.74814 259.886 7.14499C259.717 7.81548 259.238 8.40215 258.562 8.7374C257.548 9.2682 256.59 9.24026 255.914 8.70946C255.323 8.26247 255.07 7.48023 255.267 6.78181C255.436 6.11132 256.112 5.7202 256.788 5.88783C257.492 6.05545 258.196 5.66433 258.365 4.96591C258.534 4.26748 258.111 3.56906 257.435 3.40144C255.379 2.87063 253.267 4.09986 252.732 6.13926C252.281 7.84341 252.873 9.65932 254.281 10.7489C255.774 11.9222 257.83 12.034 259.773 11.0282C261.069 10.3577 262.026 9.18439 262.392 7.81548C263.012 5.44083 262.195 2.89857 260.252 1.36204C258.168 -0.286243 255.295 -0.453865 252.563 0.942983C250.704 1.89284 249.352 3.51318 248.789 5.38496C248.225 3.48525 246.874 1.8649 245.015 0.942983C242.283 -0.453865 239.382 -0.286243 237.326 1.36204C235.41 2.89857 234.565 5.44083 235.185 7.81548C235.551 9.18439 236.509 10.3577 237.804 11.0282C239.748 12.034 241.776 11.9222 243.297 10.7489C244.677 9.65932 245.296 7.84341 244.846 6.13926C244.311 4.09986 242.198 2.87063 240.142 3.40144C239.438 3.56906 239.016 4.29542 239.213 4.96591C239.382 5.66433 240.114 6.08338 240.79 5.88783C241.466 5.7202 242.142 6.11132 242.311 6.78181C242.508 7.50817 242.254 8.26247 241.663 8.70946C240.987 9.24026 240.029 9.24026 239.016 8.7374C238.368 8.40215 237.889 7.81548 237.692 7.14499C237.326 5.74814 237.804 4.26748 238.931 3.3735C240.198 2.36777 241.973 2.31189 243.804 3.23381C245.071 3.87636 245.972 4.93797 246.282 6.22307C246.31 6.36275 246.367 6.53038 246.395 6.67006C246.733 8.54184 246.141 10.3857 244.705 11.7267C243.184 13.1794 241.072 13.7381 239.016 13.2911L238.79 13.2352C237.128 12.9 234.96 11.8943 233.045 10.5812C226.961 6.33482 222.004 8.43009 221.3 8.79327C220.06 9.29613 219.075 10.2181 218.511 11.4473C217.948 12.7044 217.92 14.0734 218.427 15.3585C218.54 15.6658 218.709 15.9451 218.878 16.1966C218.765 16.1686 218.652 16.1407 218.54 16.1128C217.976 16.001 217.413 15.9172 216.85 15.9172C213.921 15.8613 211.076 17.3979 209.02 20.1357C208.963 20.2195 208.907 20.2754 208.879 20.3592H1.98577C1.42247 20.3592 0.971832 20.8062 0.971832 21.3649C0.971832 21.9236 1.42247 22.3706 1.98577 22.3706H207.809C207.33 23.516 207.076 24.7453 207.048 25.9745C207.048 26.645 207.105 27.3155 207.245 27.986C207.302 28.2653 207.386 28.5447 207.443 28.8241C208.457 32.4279 211.189 35.1937 214.85 36.3391C215.977 36.7023 217.131 36.8699 218.286 36.8979C221.046 36.9258 223.778 36.0318 225.947 34.2438L226.2 34.0483C228.425 32.3441 230.763 29.4666 232.566 26.2539C234.763 22.2868 237.438 20.3592 239.579 19.3814C241.719 18.4315 243.325 18.4595 243.437 18.4595H243.55H243.578H243.606C243.747 18.4595 243.888 18.4315 244.029 18.4315C244.93 18.4315 245.803 18.7668 246.507 19.3534C247.324 20.0239 247.831 20.9738 247.916 22.0354C247.916 22.1471 247.916 22.2309 247.916 22.3427C247.887 23.7954 246.761 25.0246 245.296 25.1643H245.127C244.677 25.1643 244.17 24.9688 243.804 24.6056C243.297 24.1307 243.071 23.6278 243.071 23.1529C243.071 23.0132 243.099 22.8735 243.156 22.7338C243.325 22.2309 243.775 21.8678 244.311 21.8398C245.015 21.784 245.578 21.1973 245.578 20.4709V20.3312C245.522 19.6049 244.902 19.0741 244.198 19.0741H244.057C242.423 19.2138 241.043 20.3033 240.508 21.8119C240.367 22.2309 240.283 22.6779 240.283 23.097C240.255 24.3542 240.846 25.6113 241.888 26.5891C242.761 27.3993 243.916 27.8742 245.099 27.9021C245.268 27.9021 245.409 27.9021 245.578 27.8742C246.057 27.8183 246.507 27.7066 246.93 27.5669C246.367 28.0977 245.944 28.7961 245.803 29.6063C245.747 29.9695 245.691 30.3606 245.691 30.7238C245.662 32.5397 246.282 34.3835 246.93 35.8362C247.578 37.261 248.225 38.2668 248.282 38.3785C248.563 38.7976 249.014 38.9652 249.437 38.9652C249.887 38.9652 250.366 38.7696 250.648 38.3506C250.704 38.2388 251.295 37.289 251.887 35.9201C252.478 34.5511 253.07 32.7911 253.098 31.0311C253.098 30.5282 253.07 30.0254 252.957 29.5504C252.788 28.7403 252.366 28.0418 251.802 27.511C252.225 27.6507 252.676 27.7625 253.154 27.7904C253.239 27.7904 253.323 27.7904 253.408 27.7904C254.647 27.8183 255.886 27.3155 256.816 26.4215C257.802 25.4716 258.337 24.2983 258.365 23.097C258.365 22.5941 258.28 22.0913 258.111 21.6163C257.548 20.1077 256.14 19.0461 254.534 18.9344H254.478C253.746 18.9064 253.126 19.4652 253.07 20.1915V20.2195V20.3033C253.07 21.0297 253.633 21.6443 254.365 21.7001C254.901 21.7281 255.351 22.0913 255.548 22.5662C255.605 22.7338 255.633 22.8735 255.633 23.0411C255.633 23.4602 255.408 23.963 254.929 24.438C254.534 24.8291 253.999 25.0246 253.52 25.0246H253.436C251.915 24.9129 250.76 23.5999 250.76 22.0913V21.9236C250.845 20.862 251.324 19.9122 252.112 19.2138C252.844 18.5712 253.774 18.236 254.76 18.236H254.985H255.013H255.126C255.126 18.236 255.182 18.236 255.295 18.236C255.83 18.236 257.492 18.3477 259.548 19.3534C261.604 20.3592 264.054 22.2309 266.138 25.8348C267.997 28.9917 270.391 31.8413 272.616 33.4895L272.898 33.713C274.954 35.3334 277.489 36.1994 280.052 36.2274C281.404 36.2553 282.756 36.0318 284.051 35.6128C287.713 34.3835 290.36 31.5898 291.318 27.958C291.402 27.6787 291.459 27.3993 291.515 27.1199C291.6 26.5891 291.656 26.0862 291.684 25.5554C291.712 24.2703 291.459 23.0132 290.98 21.784H496.014C496.578 21.784 497.028 21.337 497.028 20.7782C496.972 20.3312 496.521 19.8842 495.958 19.8842ZM220.99 12.5089C221.074 12.3133 221.187 12.1178 221.328 11.9781C221.243 12.2575 221.243 12.5648 221.356 12.8721C221.61 13.5426 222.37 13.8778 223.046 13.6264C223.271 13.5426 223.553 13.5984 223.75 13.766C223.975 13.9895 224.032 14.3807 223.835 14.8277C223.722 15.135 223.497 15.3585 223.215 15.4702C222.314 15.8054 221.3 15.3585 220.962 14.4645C220.68 13.8219 220.708 13.1235 220.99 12.5089ZM216.85 18.7109C217.216 18.7109 217.61 18.7668 217.976 18.8506C220.117 19.3255 221.779 21.0297 222.229 23.1529C222.286 23.4043 222.314 23.6837 222.314 23.9351C222.314 24.7453 222.032 25.5834 221.497 26.2818C220.567 27.539 219.441 28.1256 218.314 28.1256C218.117 28.1256 217.92 28.0977 217.695 28.0418C216.512 27.7904 215.582 26.8405 215.329 25.6672C215.301 25.4996 215.272 25.3599 215.272 25.1923C215.301 24.1865 216.005 23.2925 217.019 23.097C217.666 22.9573 218.117 22.3986 218.145 21.756C218.145 21.6722 218.145 21.5605 218.117 21.4487C217.976 20.8062 217.413 20.3592 216.765 20.3312C216.681 20.3312 216.624 20.3312 216.54 20.3592C216.484 20.3592 216.427 20.3312 216.371 20.3312H212.625C213.921 19.2417 215.385 18.683 216.85 18.7109ZM238.34 16.895C235.748 18.0683 232.622 20.415 230.144 24.9129C228.538 27.7625 226.341 30.4444 224.482 31.8971L224.229 32.1206C222.539 33.4895 220.483 34.188 218.371 34.16C217.497 34.16 216.596 34.0203 215.723 33.741C212.935 32.8749 210.935 30.8355 210.146 28.1256C210.09 27.9021 210.034 27.7066 209.977 27.4831C209.865 27.0082 209.837 26.5053 209.837 26.0304C209.865 24.8011 210.231 23.5719 210.935 22.4265H213.47C212.907 23.2367 212.569 24.1865 212.569 25.1923C212.569 25.5275 212.597 25.8907 212.681 26.2539C213.132 28.5168 214.906 30.3047 217.16 30.7797C217.554 30.8635 217.92 30.9193 218.314 30.9193C220.398 30.9473 222.37 29.8577 223.778 27.958C224.651 26.7847 225.102 25.4158 225.13 24.0189C225.13 23.5719 225.102 23.097 224.989 22.65C224.623 20.9179 223.722 19.3814 222.483 18.208C223.046 18.236 223.609 18.1521 224.144 17.9287C225.13 17.5655 225.919 16.7553 226.285 15.7775C226.82 14.3527 226.567 12.9279 225.581 11.9781C224.849 11.2797 223.863 10.9444 222.877 11.0562C223.919 10.665 227.355 9.77106 231.664 12.7883C233.861 14.2969 236.368 15.4423 238.34 15.8334L238.537 15.8893C239.297 16.0569 240.058 16.1407 240.818 16.1128C240.058 16.2245 239.241 16.5039 238.34 16.895ZM249.437 34.635C248.901 33.4337 248.451 31.9809 248.479 30.8076C248.479 30.5841 248.507 30.3606 248.535 30.165C248.592 29.8577 248.732 29.6901 248.873 29.5784C249.014 29.4666 249.211 29.4107 249.38 29.4107H249.408C249.577 29.4107 249.775 29.4666 249.915 29.5784C250.056 29.6901 250.169 29.8298 250.253 30.1371C250.31 30.4165 250.338 30.7238 250.338 31.059C250.31 32.2324 249.887 33.5454 249.437 34.635ZM248.479 26.7567C248.789 26.5053 249.07 26.2259 249.324 25.9186C249.577 26.2259 249.887 26.4774 250.197 26.7288C249.944 26.6729 249.69 26.645 249.437 26.617H249.352C249.042 26.645 248.761 26.7009 248.479 26.7567ZM250.225 17.2023C249.859 17.5096 249.549 17.8728 249.268 18.236C248.986 17.8728 248.648 17.5375 248.282 17.2302C247.071 16.2245 245.606 15.6937 244.057 15.6658H243.916C243.775 15.6658 243.606 15.6658 243.466 15.6937C243.381 15.6937 243.212 15.6937 242.987 15.6937C243.437 15.554 243.86 15.3864 244.282 15.1908C245.099 14.7997 245.888 14.2689 246.564 13.6264C247.662 12.5927 248.423 11.3355 248.817 9.99456C249.211 11.3355 249.972 12.5648 251.07 13.6264C251.746 14.2689 252.535 14.7997 253.351 15.1908C253.661 15.3305 253.971 15.4702 254.281 15.554C252.816 15.6658 251.38 16.2245 250.225 17.2023ZM280.587 18.236C281.066 18.1242 281.516 18.0683 281.995 18.0683C283.46 18.0963 284.896 18.683 286.192 19.8563H282.474C282.361 19.8284 282.249 19.8004 282.136 19.7725L281.911 19.7446C281.629 19.7446 281.376 19.8284 281.15 19.9681C280.981 20.0519 280.812 20.2195 280.728 20.3871C280.643 20.5268 280.559 20.6944 280.531 20.862L280.503 21.0855C280.503 21.756 280.953 22.3427 281.629 22.4544C282.671 22.65 283.432 23.5719 283.404 24.6056C283.404 24.7173 283.404 24.857 283.375 24.9688C283.15 26.1701 282.249 27.1199 281.066 27.3993C280.812 27.4552 280.559 27.4831 280.305 27.4831C279.235 27.4552 278.165 26.8685 277.235 25.6951C276.672 24.9408 276.362 24.0468 276.362 23.1808C276.362 22.9852 276.39 22.7617 276.419 22.5662C276.813 20.4989 278.446 18.7668 280.587 18.236ZM276.334 12.8721C276.447 12.5648 276.447 12.2575 276.362 11.9781C276.503 12.1457 276.616 12.3133 276.7 12.5089C276.982 13.1235 276.982 13.794 276.757 14.4365C276.419 15.3305 275.405 15.7775 274.503 15.4423C274.222 15.3305 273.996 15.107 273.884 14.7997C273.715 14.3527 273.743 13.9616 273.968 13.7381C274.165 13.5705 274.419 13.4867 274.672 13.5984C275.32 13.8499 276.081 13.5146 276.334 12.8721ZM288.755 26.7009C288.727 26.9244 288.67 27.1479 288.614 27.3434C287.91 30.0533 285.938 32.1486 283.15 33.0705C282.136 33.4057 281.094 33.5734 280.08 33.5454C278.108 33.5175 276.193 32.847 274.616 31.6178L274.334 31.3943C272.447 30.0254 270.222 27.3713 268.561 24.5497C266.167 20.3871 263.237 18.1242 260.731 16.9229C259.801 16.4759 258.928 16.1686 258.168 15.9731C258.506 15.9451 258.844 15.8893 259.153 15.8054L259.351 15.7496C261.322 15.3585 263.829 14.213 266.026 12.7044C270.335 9.68725 273.771 10.5812 274.813 10.9724C273.827 10.8606 272.842 11.1679 272.109 11.8943C271.124 12.8441 270.87 14.2689 271.405 15.6937C271.771 16.6994 272.56 17.4817 273.546 17.8448C274.25 18.0963 274.954 18.1801 275.658 18.0683C274.672 19.1858 273.968 20.5547 273.687 22.0913C273.63 22.4544 273.574 22.7897 273.574 23.1529C273.546 24.6615 274.053 26.1421 275.01 27.3993C276.39 29.2152 278.277 30.2489 280.249 30.2768C280.728 30.2768 281.207 30.2209 281.685 30.1092C283.939 29.5784 285.657 27.7625 286.079 25.4996C286.136 25.2202 286.164 24.9408 286.164 24.6894C286.192 23.6557 285.854 22.6779 285.319 21.8678H287.854C288.558 23.0132 288.896 24.2703 288.896 25.5554C288.867 25.9466 288.811 26.3377 288.755 26.7009Z" fill="#E2BD68"></path></svg>