<svg width="39" height="38" viewBox="0 0 39 38" fill="none" xmlns="http://www.w3.org/2000/svg">
<path fill-rule="evenodd" clip-rule="evenodd" d="M19.5 6.33333C15.9101 6.33333 13 9.16886 13 12.6667C13 16.1645 15.9101 19 19.5 19C23.0899 19 26 16.1645 26 12.6667C26 9.16886 23.0899 6.33333 19.5 6.33333ZM25.4166 20.2182C27.7469 18.4822 29.25 15.7455 29.25 12.6667C29.25 7.41996 24.8848 3.16666 19.5 3.16666C14.1152 3.16666 9.75 7.41996 9.75 12.6667C9.75 15.7455 11.2531 18.4822 13.5834 20.2182C11.9495 20.9224 10.4463 21.919 9.15856 23.1737C8.16418 24.1426 7.32769 25.2368 6.66538 26.4181C5.44319 28.598 5.94162 30.8207 7.31802 32.3924C8.64305 33.9055 10.7657 34.8333 13 34.8333H26C28.2343 34.8333 30.357 33.9055 31.682 32.3924C33.0584 30.8207 33.5568 28.598 32.3346 26.4181C31.6723 25.2368 30.8358 24.1426 29.8414 23.1737C28.5537 21.919 27.0505 20.9224 25.4166 20.2182ZM19.5 22.1667C16.4832 22.1667 13.5899 23.3344 11.4567 25.4129C10.6832 26.1666 10.0326 27.0175 9.51755 27.9362C9.01874 28.8259 9.17965 29.6396 9.79031 30.337C10.4523 31.0929 11.6445 31.6667 13 31.6667H26C27.3555 31.6667 28.5477 31.0929 29.2097 30.337C29.8204 29.6396 29.9813 28.8259 29.4824 27.9362C28.9674 27.0175 28.3168 26.1666 27.5433 25.4129C25.4101 23.3344 22.5168 22.1667 19.5 22.1667Z" fill="#FD1212"/>
</svg>
